<svg xmlns="http://www.w3.org/2000/svg" viewBox="0 0 64 64" width="64" height="64">
  <path
    d="M32 10c12.15 0 22 9.85 22 22s-9.85 22-22 22S10 44.15 10 32 19.85 10 32 10Z"
    fill="none"
    stroke="#111827"
    stroke-width="3"
    stroke-linecap="round"
    stroke-linejoin="round"
  />
  <path
    d="M22 32.5c2 0 3.6-1.6 3.6-3.6 0-2-1.6-3.6-3.6-3.6S18.4 27 18.4 28.9c0 2 1.6 3.6 3.6 3.6Z"
    fill="#3b82f6"
  />
  <path
    d="M42 32.5c-2 0-3.6-1.6-3.6-3.6 0-2 1.6-3.6 3.6-3.6 2 0 3.6 1.6 3.6 3.6 0 2-1.6 3.6-3.6 3.6Z"
    fill="#22c55e"
  />
  <path
    d="M26 40c2.2 3 5.4 4.8 8.7 4.8s6.5-1.8 8.7-4.8"
    fill="none"
    stroke="#f97316"
    stroke-width="3"
    stroke-linecap="round"
  />
</svg>
