<svg xmlns="http://www.w3.org/2000/svg" viewBox="0 0 64 64" width="64" height="64">
  <path d="M20 12h18a6 6 0 0 1 6 6v34a4 4 0 0 0 4 4V18a8 8 0 0 0-8-8H22a4 4 0 0 0-4 4v36a4 4 0 0 0 4 4h2" fill="#ffffff" stroke="#0f172a" stroke-width="3" />
  <path d="M26 24l12-6" stroke="#3b82f6" stroke-width="3" stroke-linecap="round" />
  <path d="M28 32l10-4" stroke="#22c55e" stroke-width="3" stroke-linecap="round" />
  <path d="M30 40h10" stroke="#a855f7" stroke-width="3" stroke-linecap="round" />
  <path d="M42 50H26" stroke="#f97316" stroke-width="3" stroke-linecap="round" />
  <path d="M36 18L28 50" stroke="#0f172a" stroke-width="3" stroke-linecap="round" />
</svg>
