<svg width="64" height="64" viewBox="0 0 64 64" fill="none" xmlns="http://www.w3.org/2000/svg">
  <defs>
    <linearGradient id="flow-bg" x1="8" y1="8" x2="56" y2="56" gradientUnits="userSpaceOnUse">
      <stop stop-color="#34d399" />
      <stop offset="0.5" stop-color="#2dd4bf" />
      <stop offset="1" stop-color="#fbbf24" />
    </linearGradient>
    <linearGradient id="flow-path" x1="16" y1="18" x2="52" y2="46" gradientUnits="userSpaceOnUse">
      <stop stop-color="#064e3b" />
      <stop offset="1" stop-color="#0f766e" />
    </linearGradient>
  </defs>
  <rect x="2" y="2" width="60" height="60" rx="16" fill="url(#flow-bg)" opacity="0.15" />
  <path
    d="M18 38c4 0 6-2 9-8s6-8 10-8c4.5 0 7 3 9 9m-30 9c2 3 5 6 8 6 4 0 6-2 9-8s6-8 10-8"
    stroke="url(#flow-path)"
    stroke-width="4"
    stroke-linecap="round"
    stroke-linejoin="round"
  />
  <circle cx="20" cy="38" r="4" fill="#065f46" />
  <circle cx="44" cy="23" r="4" fill="#0f766e" />
  <circle cx="48" cy="35" r="3.5" fill="#ca8a04" />
</svg>
