<svg xmlns="http://www.w3.org/2000/svg" viewBox="0 0 48 48" width="48" height="48">
  <path fill="#1877F2" d="M24 4C12.9543 4 4 12.9543 4 24C4 34.0065 11.5821 42.1771 21.1875 43.751V30.687H15.8984V24H21.1875V19.3066C21.1875 14.0908 24.5129 11.0625 29.2051 11.0625C31.4496 11.0625 33.8125 11.4609 33.8125 11.4609V16.5938H31.1631C28.5547 16.5938 27.8125 18.2188 27.8125 19.9062V24H33.5625L32.6328 30.687H27.8125V43.751C37.4179 42.1771 45 34.0065 45 24C45 12.9543 36.0457 4 24 4Z"/>
  <path fill="#fff" d="M32.6328 30.687L33.5625 24H27.8125V19.9062C27.8125 18.2188 28.5547 16.5938 31.1621 16.5938H33.8125V11.4609C33.8125 11.4609 31.4496 11.0625 29.2051 11.0625C24.5129 11.0625 21.1875 14.0908 21.1875 19.3066V24H15.8984V30.687H21.1875V43.751C22.0876 43.8915 22.9949 43.9632 23.9062 43.9648H24.0938C25.0051 43.9632 25.9124 43.8915 26.8125 43.751V30.687H32.6328Z"/>
</svg>
