<svg xmlns="http://www.w3.org/2000/svg" viewBox="0 0 48 48" width="48px" height="48px">
  <path fill="#fbc02d" d="M43.6,20.5H42V20H24v8h11.3C33.3,31.7,29.1,35,24,35c-6.1,0-11-4.9-11-11s4.9-11,11-11c2.8,0,5.4,1.1,7.4,2.8 l5.7-5.7C33.4,6.4,28.9,4,24,4C12.9,4,4,12.9,4,24s8.9,20,20,20c11,0,19.7-8,19.7-20C43.7,22.3,43.6,21.4,43.6,20.5z"/>
  <path fill="#e53935" d="M6.3,14.7l6.6,4.8C14.4,16.2,18.8,13,24,13c2.8,0,5.4,1.1,7.4,2.8l5.7-5.7C33.4,6.4,28.9,4,24,4 C16.3,4,9.8,8.4,6.3,14.7z"/>
  <path fill="#4caf50" d="M24,44c5,0,9.4-1.6,12.9-4.3l-6-4.9c-1.7,1.2-3.9,1.9-6.9,1.9c-5,0-9.2-3.3-10.7-7.8l-6.6,5.1 C9.4,39.5,16.1,44,24,44z"/>
  <path fill="#1565c0" d="M43.6,20.5H42V20H24v8h11.3c-0.5,2.5-2,4.6-4.1,6l0,0l6,4.9c-0.4,0.3,6.7-4.9,6.7-15.9 C43.7,22.3,43.6,21.4,43.6,20.5z"/>
</svg>
